<svg xmlns="http://www.w3.org/2000/svg" viewBox="0 0 97.25 83.18"><defs><style>.cls-1{fill:#1367b6;}</style></defs><title>conv</title><g id="Слой_2" data-name="Слой 2"><g id="Слой_1-2" data-name="Слой 1"><path class="cls-1" d="M97.25,23A23,23,0,0,1,77.62,45.71a20.7,20.7,0,0,0,.57,9.09A1.84,1.84,0,0,1,75.62,57a31.55,31.55,0,0,1-9.33-7V49A28.72,28.72,0,0,0,37.62,20.28h-.8A23,23,0,0,1,59.62,0H74.25A23,23,0,0,1,97.25,23ZM60.7,49h0a23,23,0,0,1-23,23H33.83c-2.9,5.51-8.31,9.07-12.14,11a1.85,1.85,0,0,1-2.6-2.17,20.81,20.81,0,0,0,.53-9A23,23,0,0,1,0,49H0A23,23,0,0,1,23,26H37.68a23,23,0,0,1,23,23v0ZM32.46,60.4a2.4,2.4,0,1,0-2.4,2.4,2.39,2.39,0,0,0,2.4-2.4Zm5.78-17.26A8.25,8.25,0,0,0,30,35.2H30a8.13,8.13,0,0,0-7.32,4.64A2.39,2.39,0,0,0,27,41.92h0A3.39,3.39,0,0,1,30,40a3.49,3.49,0,0,1,3.43,3.3,3.4,3.4,0,0,1-2.25,3.32,5.05,5.05,0,0,0-3.54,4.75v1.91a2.39,2.39,0,1,0,4.78,0h0V51.36c0-.14.24-.22.24-.23a8.15,8.15,0,0,0,5.61-8Z"/></g></g></svg>