<svg xmlns="http://www.w3.org/2000/svg" viewBox="0 0 450 512"><defs><style>.cls-1{fill:#1367b6;}</style></defs><title>desk</title><g id="Слой_2" data-name="Слой 2"><g id="Capa_1" data-name="Capa 1"><rect class="cls-1" x="120" y="150" width="30" height="60"/><polygon class="cls-1" points="240 210 270 210 270 141.21 240 111.21 240 210"/><polygon class="cls-1" points="180 210 210 210 210 111.21 180 141.21 180 210"/><path class="cls-1" d="M435,271H420V30h15a15,15,0,0,0,0-30H15a15,15,0,0,0,0,30H30V271H15a15,15,0,0,0,0,30H210v30H195a15,15,0,0,0,0,30h15v8.79l-85.61,86.6a15,15,0,1,0,21.22,21.22L210,413.21V497a15,15,0,0,0,30,0V413.21l64.39,64.4a15,15,0,0,0,21.22-21.22L240,369.79V361h15a15,15,0,0,0,0-30H240V301H435a15,15,0,0,0,0-30ZM360,135a15,15,0,0,1-30,0V111.21l-30,30V210h15a15,15,0,0,1,0,30H105a15,15,0,0,1-15-15V75a15,15,0,0,1,30,0v45h38.79l55.59-55.59a15,15,0,0,1,21.24,0L285,113.79,308.79,90H285a15,15,0,0,1,0-30h60a15.06,15.06,0,0,1,15,15Z"/></g></g></svg>