<svg xmlns="http://www.w3.org/2000/svg" viewBox="0 0 512 511.1"><defs><style>.cls-1{fill:#1367b6;}</style></defs><title>gift</title><g id="Слой_2" data-name="Слой 2"><g id="Layer_1" data-name="Layer 1"><path class="cls-1" d="M478.61,99.28H441.34a59.16,59.16,0,0,0,9.08-25.75c3-29.52-12.59-56-39.05-67.71A65.46,65.46,0,0,0,340,17.3L293,60a50,50,0,0,0-74,0L171.87,17.3A65.47,65.47,0,0,0,100.51,5.83c-26.46,11.73-42,38.2-39,67.71a59.42,59.42,0,0,0,9.08,25.74H33.39A33.39,33.39,0,0,0,0,132.67v50.09a16.69,16.69,0,0,0,16.7,16.69H495.3A16.7,16.7,0,0,0,512,182.76V132.67A33.39,33.39,0,0,0,478.61,99.28Zm-272.7-5.57v5.57H127.37A32.87,32.87,0,0,1,113.5,36.59a32.17,32.17,0,0,1,36,5.45l56.47,51.18C205.92,93.39,205.91,93.55,205.91,93.71ZM417.29,69.1C416.05,86.45,400.38,99.28,383,99.28H306.09V93.72c0-.2,0-.4,0-.59l55.6-50.39c8.55-7.76,20.52-11.38,31.58-8.08C409.13,39.4,418.45,52.9,417.29,69.1Z"/><path class="cls-1" d="M33.39,232.84V477.71A33.38,33.38,0,0,0,66.78,511.1H222.61V232.84Z"/><path class="cls-1" d="M289.39,232.84V511.1H445.22a33.38,33.38,0,0,0,33.39-33.39V232.84Z"/></g></g></svg>