<svg xmlns="http://www.w3.org/2000/svg" viewBox="0 0 59.24 90"><defs><style>.cls-1{fill:#1367b6;}</style></defs><title>mic</title><g id="Слой_2" data-name="Слой 2"><g id="Слой_1-2" data-name="Слой 1"><path class="cls-1" d="M52.31,88.11H6.93a.95.95,0,0,0,0,1.89H52.31a.95.95,0,0,0,0-1.89Z"/><path class="cls-1" d="M56.42,54.32A4.59,4.59,0,0,0,54.65,54H4.6A4.6,4.6,0,0,0,0,58.56v.11l0,.1,4.15,24.1a4.61,4.61,0,0,0,4.6,4.48H50.48a4.6,4.6,0,0,0,4.59-4.48l4.15-24.1,0-.1v-.11A4.61,4.61,0,0,0,56.42,54.32ZM29.62,72.63a2,2,0,1,1,2-2A2,2,0,0,1,29.62,72.63Z"/><path class="cls-1" d="M45.81,40.7a23.73,23.73,0,0,1-2.88-.3A16.17,16.17,0,0,1,39.57,40c-.18,1.52-4.58,6.5-7.47,9.63l-1.25-4.83A3.1,3.1,0,0,0,32,42H27.25a3.14,3.14,0,0,0,1.12,2.79l-1.23,4.84c-2.89-3.13-7.3-8.12-7.48-9.63a16,16,0,0,1-3.21.48c-1.24.22-3.32-.15-4.39.73a32.18,32.18,0,0,1,3.27,2.47,7.79,7.79,0,0,1,3.45,3.87,1.39,1.39,0,0,1,.06,1,12.5,12.5,0,0,1,.81,3.49h35a4.6,4.6,0,0,1,1.78.36c0-.16-.06-.31-.1-.46a20,20,0,0,0-4-7.88,9.56,9.56,0,0,0-5.92-3.28Z"/><path class="cls-1" d="M7.42,52.07a12.23,12.23,0,0,1,.79-3.42,1.3,1.3,0,0,1,.07-.89,9.85,9.85,0,0,1,2.06-3,5.63,5.63,0,0,1,1.38-1,2.07,2.07,0,0,1,.84-1,6.12,6.12,0,0,1,.82-2l-.55.1a9.69,9.69,0,0,0-6.18,3.58A20.46,20.46,0,0,0,2.92,52c0,.16-.07.31-.1.47a4.6,4.6,0,0,1,1.78-.36Z"/><path class="cls-1" d="M13.38,41C12,41,8.31,45,7.71,48.07a15.49,15.49,0,0,0-.61,4H19.84c-.14-1.38.24-3-.33-4.43C19.3,44.77,14.77,41,13.38,41Z"/><path class="cls-1" d="M14.9,29.33a4.42,4.42,0,0,0,1.21.17h.82a4.46,4.46,0,0,0,.63-.05A22.38,22.38,0,0,0,22.42,37a12.36,12.36,0,0,0,4.1,2.76,8.55,8.55,0,0,0,3.15.63,8.4,8.4,0,0,0,3.16-.63,12.68,12.68,0,0,0,4.23-2.89,21.31,21.31,0,0,0,3.57-4.88,10,10,0,0,0,2.84-2.47,4.89,4.89,0,0,0,.78-.11,4.19,4.19,0,0,0,3.28-4V22.12a4.17,4.17,0,0,0-3.28-4V13.79C44.25,6.18,37.67,0,29.58,0S14.9,6.18,14.9,13.79v4.35a4.19,4.19,0,0,0-3.19,4v3.24A4.17,4.17,0,0,0,14.9,29.33ZM29.58,2.88a11.61,11.61,0,0,1,10.8,6.94,12.76,12.76,0,0,0-9.09-4.1c-6-.4-10.6,1.79-13,5.51A11.5,11.5,0,0,1,29.58,2.88ZM18,22.25a.25.25,0,0,1,.13-.06h.14a.82.82,0,0,1,.4.19v0c.05-.49.59-4,3.5-5.11l.11,0a5.25,5.25,0,0,1,.6-.16,5.39,5.39,0,0,1,.83-.1,8.55,8.55,0,0,1,.87,0,15.59,15.59,0,0,0,4.73.79,11,11,0,0,0,3.72-.6h1.25c1.66.07,2.81.93,4,1.49h0v0c0-.54-.46-1.1-.44-1.47h0l0,0a2.21,2.21,0,0,1,.5.21,11.48,11.48,0,0,1,2.35,5,0,0,0,0,0,0,0h0a.57.57,0,0,1,.21-.12.7.7,0,0,1,.18-.05h.07v5a2.15,2.15,0,0,1-.41.5.84.84,0,0,1-.28.17h-.28a.5.5,0,0,1-.25-.13l0,0h0a18.93,18.93,0,0,1-1.29,3.06,17.21,17.21,0,0,1-5.93,1.55,1.9,1.9,0,0,0-1.61-.88H28.57a1.92,1.92,0,1,0,0,3.83h2.54a1.92,1.92,0,0,0,1.7-1,20.82,20.82,0,0,0,4.11-.74A13.74,13.74,0,0,1,34.52,36a9.15,9.15,0,0,1-2.28,1.34h0l-.91.28-.07,0-.27.08h-.08l-.36,0h-.08c-.25,0-.5.07-.75.08h0a7.83,7.83,0,0,1-4.75-1.78,17.53,17.53,0,0,1-5.52-8.32h0a.67.67,0,0,1-.28.14h0a.29.29,0,0,1-.13,0,.84.84,0,0,1-.52-.28,2.73,2.73,0,0,1-.5-.74V22.25Z"/></g></g></svg>