<svg xmlns="http://www.w3.org/2000/svg" viewBox="0 0 217.49 332.82"><defs><style>.cls-1{fill:#bfbfbf;}</style></defs><title>mouse</title><g id="Слой_2" data-name="Слой 2"><g id="Слой_1-2" data-name="Слой 1"><path class="cls-1" d="M119.62,0H94.09C41.33,0,0,43,0,97.89v137c0,54.89,41.33,97.89,94.09,97.89h25.53a98,98,0,0,0,97.87-97.89v-137A98,98,0,0,0,119.62,0ZM107.76,51.3h2a5.6,5.6,0,0,1,5.6,5.6V96.76a5.6,5.6,0,0,1-5.6,5.6h-2a5.6,5.6,0,0,1-5.6-5.6V56.9a5.6,5.6,0,0,1,5.6-5.6Zm96.93,183.63A85.17,85.17,0,0,1,119.62,320H94.09C48.5,320,12.8,282.65,12.8,234.93v-137c0-47.71,35.7-85.09,81.29-85.09h8.18V39.33A18.45,18.45,0,0,0,89.36,56.9V96.76a18.42,18.42,0,0,0,12.91,17.56v32.94a6.4,6.4,0,1,0,12.8,0V114.37a18.42,18.42,0,0,0,13.06-17.61V56.9a18.43,18.43,0,0,0-13.06-17.61V12.8h4.55a85.17,85.17,0,0,1,85.07,85.09Z"/></g></g></svg>