<svg xmlns="http://www.w3.org/2000/svg" width="22.97" height="21.969" viewBox="0 0 22.97 21.969">
  <defs>
    <style>
      .cls-1 {
        fill: #fff;
        fill-rule: evenodd;
      }
    </style>
  </defs>
  <path class="cls-1" d="M4848,46.366a2.936,2.936,0,0,1-.97-1.7,2.119,2.119,0,0,1,.94-1.88,2.433,2.433,0,0,0,.8-1.044,2.11,2.11,0,0,0-.26-1.693c-0.91-1.093-1.73-2.33-2.54-3.251a2.059,2.059,0,0,0-1.96-.531,3.43,3.43,0,0,0-1.36.892c-2.05,2-2.9,4.054-2.54,6.124s1.82,4.018,4.01,6.158c0.87,0.847,1.82,1.777,2.59,2.529,2.18,2.141,4.17,3.565,6.29,3.923s4.22-.479,6.26-2.478a3.382,3.382,0,0,0,.91-1.331,1.964,1.964,0,0,0-.54-1.92c-0.94-.8-2.21-1.6-3.33-2.483a2.24,2.24,0,0,0-1.73-.26,2.424,2.424,0,0,0-1.06.784,2.22,2.22,0,0,1-1.92.921,3.037,3.037,0,0,1-1.75-.949m-5-10.314,2.29,2.93a0.675,0.675,0,0,1,.15.463,1.414,1.414,0,0,1-.36.383,3.8,3.8,0,0,0-1.45,3.173,4.272,4.272,0,0,0,1.42,2.642c0.68,0.66,1.19,1.165,1.85,1.806a4.417,4.417,0,0,0,2.7,1.389,3.941,3.941,0,0,0,3.24-1.423,1.576,1.576,0,0,1,.39-0.35,0.735,0.735,0,0,1,.47.147l3,2.241c0.21,0.212.18,0.218,0.14,0.361a2.471,2.471,0,0,1-.53.706c-1.2,1.175-3.18,2.495-4.88,2.055-1.57-.266-3.36-1.453-5.46-3.5-0.86-.846-1.81-1.777-2.58-2.529-2.09-2.048-3.31-3.806-3.58-5.34-0.45-1.666.9-3.6,2.1-4.776a2.52,2.52,0,0,1,.72-0.514,0.3,0.3,0,0,1,.37.136h0Zm5.07-3.052a0.8,0.8,0,0,0,.82.726,10.585,10.585,0,0,1,10.71,10.474,0.78,0.78,0,0,0,1.56,0A12.151,12.151,0,0,0,4850.73,34a0.836,0.836,0,0,0-.82.807h0Zm0,3.066a0.8,0.8,0,0,0,.82.725,7.479,7.479,0,0,1,7.57,7.409,0.811,0.811,0,0,0,.79.777,0.8,0.8,0,0,0,.78-0.777,9.053,9.053,0,0,0-9.14-8.941,0.829,0.829,0,0,0-.82.807h0Z" transform="translate(-4840.03 -34)"/>
</svg>
