<svg xmlns="http://www.w3.org/2000/svg" viewBox="0 0 324 512"><defs><style>.cls-1{fill:#b31217;}</style></defs><title>Ресурс 1</title><g id="Слой_2" data-name="Слой 2"><g id="Слой_1-2" data-name="Слой 1"><path class="cls-1" d="M311.31,380.35a10,10,0,0,0-12.27,7A142.27,142.27,0,0,1,162,492C83.7,492,20,428.3,20,350S83.7,208,162,208A142.27,142.27,0,0,1,299,312.62a10,10,0,1,0,19.29-5.25A161.64,161.64,0,0,0,256,218.14V166.66A22.72,22.72,0,0,0,240.14,145L315.22,15a10,10,0,0,0-8.66-15h-123a10,10,0,0,0-8.66,5L162,27.36,149.09,5a10,10,0,0,0-8.66-5h-123A10,10,0,0,0,8.78,15L83.86,145A22.72,22.72,0,0,0,68,166.66v51.47A161.91,161.91,0,0,0,0,350c0,89.33,72.67,162,162,162A162.29,162.29,0,0,0,318.33,392.63,10,10,0,0,0,311.31,380.35ZM189.34,20h99.9L223.5,133.87,173.55,47.36Zm-54.68,0,71.59,124h-99.9L34.76,20ZM88,166.66A2.67,2.67,0,0,1,90.67,164H233.33a2.67,2.67,0,0,1,2.67,2.66v39.28a161.71,161.71,0,0,0-148,0Z"/><path class="cls-1" d="M213.82,320.9H187.28l-8.12-25.11a18,18,0,0,0-34.32,0l-8.11,25.11H110.18a18,18,0,0,0-10.56,32.65l21.49,15.54-8.23,25.12a18,18,0,0,0,27.77,20.17L162,398.8l21.35,15.58a18,18,0,0,0,27.77-20.17l-8.22-25.12,21.49-15.54a18,18,0,0,0-10.57-32.65Zm-28.56,36.26a10,10,0,0,0-3.64,11.22l8.59,26.25-22.32-16.29a10,10,0,0,0-11.78,0l-22.32,16.29,8.59-26.25a10,10,0,0,0-3.64-11.22L116.26,340.9H144a10,10,0,0,0,9.52-6.92L162,307.73,170.48,334A10,10,0,0,0,180,340.9h27.74Z"/><path class="cls-1" d="M162,236A114,114,0,1,0,276,350,114.13,114.13,0,0,0,162,236Zm0,208a94,94,0,1,1,94-94A94.11,94.11,0,0,1,162,444Z"/><path class="cls-1" d="M321.07,342.93A10,10,0,1,0,324,350,10.08,10.08,0,0,0,321.07,342.93Z"/></g></g></svg>