<svg xmlns="http://www.w3.org/2000/svg" viewBox="0 0 511.99 512"><defs><style>.cls-1{fill:#b31217;}</style></defs><title>cert</title><g id="Слой_2" data-name="Слой 2"><g id="Capa_1" data-name="Capa 1"><path class="cls-1" d="M448,93a10,10,0,0,0,10-10V30A30,30,0,0,0,428,0H30A30,30,0,0,0,0,30V482a30,30,0,0,0,30,30H428a30,30,0,0,0,30-30V454a10,10,0,0,0-20,0v28a10,10,0,0,1-10,10H30a10,10,0,0,1-10-10V30A10,10,0,0,1,30,20H428a10,10,0,0,1,10,10V83A10,10,0,0,0,448,93Z"/><path class="cls-1" d="M400,48H58A10,10,0,0,0,48,58V267a10,10,0,0,0,20,0V68H390V84a10,10,0,0,0,20,0V58A10,10,0,0,0,400,48Z"/><path class="cls-1" d="M65.06,296.93A10,10,0,1,0,68,304,10.06,10.06,0,0,0,65.06,296.93Z"/><path class="cls-1" d="M400,422a10,10,0,0,0-10,10v12H68V342.5a10,10,0,0,0-20,0V454a10,10,0,0,0,10,10H400a10,10,0,0,0,10-10V432A10,10,0,0,0,400,422Z"/><path class="cls-1" d="M309.9,353.34a10,10,0,0,0-14.14,0L276,373.1l-12.29-12.29a19.92,19.92,0,0,0-28.13,0l-8,8A10,10,0,0,0,241.73,383l7.92-7.92,12.28,12.29a19.91,19.91,0,0,0,28.13,0l19.84-19.84A10,10,0,0,0,309.9,353.34Z"/><path class="cls-1" d="M507.4,209.78a29.08,29.08,0,0,0-11.14-41.54,9.11,9.11,0,0,1-4.9-8.5,29.09,29.09,0,0,0-30.42-30.41,9.09,9.09,0,0,1-8.49-4.91,29.1,29.1,0,0,0-41.55-11.13,9.11,9.11,0,0,1-9.81,0,29.09,29.09,0,0,0-41.54,11.13,9.13,9.13,0,0,1-8.5,4.91,29.09,29.09,0,0,0-30.41,30.41,9.14,9.14,0,0,1-4.91,8.5A29,29,0,0,0,300.28,198H125.78a10,10,0,1,0,0,20H305.39a9.9,9.9,0,0,1-.79,1.6A29.11,29.11,0,0,0,301,242.83,28.7,28.7,0,0,0,302,246H125.77a10,10,0,1,0,0,20H320a9.11,9.11,0,0,1,.59,3.64A29.09,29.09,0,0,0,351,300.05a9.09,9.09,0,0,1,8.5,4.91A29.15,29.15,0,0,0,364,311.3v93.4a10,10,0,0,0,17.06,7.08L406,387l24.95,24.81A10,10,0,0,0,438,414.7a10,10,0,0,0,10-10V311.3a29.2,29.2,0,0,0,4.46-6.34,9.11,9.11,0,0,1,8.49-4.91,29.09,29.09,0,0,0,30.42-30.41,9.11,9.11,0,0,1,4.9-8.5,29.11,29.11,0,0,0,11.14-41.55A9.07,9.07,0,0,1,507.4,209.78ZM428,380.64l-14.94-14.87a10,10,0,0,0-14.11,0L384,380.64v-60a29.18,29.18,0,0,0,17.1-4.56,9.11,9.11,0,0,1,9.81,0,29.13,29.13,0,0,0,15.72,4.6c.46,0,.92,0,1.37-.05v60Zm63.7-143a9,9,0,0,1-4.61,5.72,29.18,29.18,0,0,0-15.7,27.2,9.08,9.08,0,0,1-9.51,9.5,29.18,29.18,0,0,0-27.19,15.7,9.09,9.09,0,0,1-13,3.48,29.22,29.22,0,0,0-31.41,0,9.08,9.08,0,0,1-13-3.48,29.16,29.16,0,0,0-27.2-15.7,9.08,9.08,0,0,1-9.5-9.5,29.15,29.15,0,0,0-7.92-21.3c-.15-.17-.31-.34-.48-.5a29.06,29.06,0,0,0-7.3-5.4,9.08,9.08,0,0,1-3.48-13,29.15,29.15,0,0,0,0-31.4,9.08,9.08,0,0,1,3.48-13,29.18,29.18,0,0,0,15.7-27.2,9.1,9.1,0,0,1,9.5-9.51,29.15,29.15,0,0,0,27.2-15.7,9.09,9.09,0,0,1,13-3.47,29.19,29.19,0,0,0,31.4,0,9.1,9.1,0,0,1,13,3.47,29.14,29.14,0,0,0,27.19,15.7,9.1,9.1,0,0,1,9.51,9.51,29.17,29.17,0,0,0,15.7,27.2,9.08,9.08,0,0,1,3.48,13,29.15,29.15,0,0,0,0,31.4A9,9,0,0,1,491.69,237.65Z"/><path class="cls-1" d="M453.55,187.49a10,10,0,0,0-14.14,0l-33.19,33.19L393,207.46a10,10,0,0,0-14.15,14.15l20.29,20.28a10,10,0,0,0,14.14,0l40.26-40.26A10,10,0,0,0,453.55,187.49Z"/><path class="cls-1" d="M122.07,120.93A10,10,0,1,0,125,128,10.08,10.08,0,0,0,122.07,120.93Z"/><path class="cls-1" d="M201,118H152.33a10,10,0,0,0,0,20H201a10,10,0,0,0,0-20Z"/><path class="cls-1" d="M302.83,294H188.51a10,10,0,0,0,0,20H302.83a10,10,0,0,0,0-20Z"/></g></g></svg>