<svg xmlns="http://www.w3.org/2000/svg" xmlns:xlink="http://www.w3.org/1999/xlink" viewBox="0 0 1253.99 288.32"><defs><style>.cls-1{fill:#0152ac;}.cls-2{fill:#e31e24;}.cls-3,.cls-4,.cls-8{fill:none;}.cls-3,.cls-4,.cls-8,.cls-9{stroke:#000;stroke-width:5.83px;}.cls-3,.cls-4{stroke-miterlimit:10;}.cls-4{stroke-linecap:round;}.cls-5{fill:#7b869e;}.cls-6{fill:#c22328;}.cls-10,.cls-11,.cls-7{fill:#fff;}.cls-7{opacity:0.33;}.cls-8,.cls-9{stroke-linejoin:round;}.cls-9{fill:url(#radial-gradient);}.cls-10{fill-rule:evenodd;}</style><radialGradient id="radial-gradient" cx="74.67" cy="210.51" r="73.34" gradientUnits="userSpaceOnUse"><stop offset="0" stop-color="#be272a"/><stop offset="1" stop-color="#ac3d38"/></radialGradient></defs><title>Ресурс 1</title><g id="Слой_2" data-name="Слой 2"><g id="Layer_1" data-name="Layer 1"><path class="cls-1" d="M331.85,56.05l-5,5.26V76.85a3.81,3.81,0,0,1-1.14,2.83,4,4,0,0,1-2.91,1.22A3.88,3.88,0,0,1,320,79.68a3.8,3.8,0,0,1-1.13-2.83v-49A4.5,4.5,0,0,1,320,25a4.43,4.43,0,0,1,2.83-1.13A4.51,4.51,0,0,1,325.69,25a4.51,4.51,0,0,1,1.14,2.92V49.82l22.42-24a3.8,3.8,0,0,1,2.59-1.53,3.68,3.68,0,0,1,3,.81,3.82,3.82,0,0,1,1.54,2.59,3.72,3.72,0,0,1-.81,3L337.43,50.23,355.8,74.34a3.7,3.7,0,0,1,1,2.92A4.15,4.15,0,0,1,355.23,80a4,4,0,0,1-2.5.89,3.84,3.84,0,0,1-3.08-1.46Z"/><path class="cls-1" d="M381.54,58.89,365.11,79.12A4,4,0,0,1,362,80.66a3.9,3.9,0,0,1-2.43-.89A3.83,3.83,0,0,1,358,77.18a3.67,3.67,0,0,1,.81-3l17.64-21.85L359,30.64a3.73,3.73,0,0,1-.81-3A3.55,3.55,0,0,1,359.69,25a3.59,3.59,0,0,1,2.91-.81,4.17,4.17,0,0,1,2.67,1.54l16.27,20.07L397.48,25.7a4.17,4.17,0,0,1,2.67-1.54,3.62,3.62,0,0,1,2.92.81,3.57,3.57,0,0,1,1.53,2.67,3.7,3.7,0,0,1-.81,3L386.64,52.33Z"/><path class="cls-1" d="M430.26,24.08A15.61,15.61,0,0,1,441.43,29a15.85,15.85,0,0,1,.24,22.1,17.36,17.36,0,0,1-11.09,5.34q-.07.07-13.84.08v20a3.7,3.7,0,0,1-1.21,2.83,3.9,3.9,0,0,1-2.83,1.22,4.15,4.15,0,0,1-4.05-4V28.13a4,4,0,0,1,1.21-2.91,3.84,3.84,0,0,1,2.84-1.14Zm-.65,24.36A8,8,0,0,0,435.52,46,8.55,8.55,0,0,0,438,40.19a8.46,8.46,0,0,0-2.51-5.75,8,8,0,0,0-5.91-2.26H416.74V48.44Z"/><path class="cls-1" d="M499.29,43.83a4,4,0,0,1-3,.33A3.39,3.39,0,0,1,494,42.37q-6.06-10.11-17.4-10.11a20.45,20.45,0,0,0-20.31,20.23,19,19,0,0,0,6,14.16,19.91,19.91,0,0,0,14.32,5.75A19.63,19.63,0,0,0,486.1,70a20.72,20.72,0,0,0,7.37-6.8A3.28,3.28,0,0,1,496,61.39a3,3,0,0,1,2.83.81,3.67,3.67,0,0,1,2,2.35,3.08,3.08,0,0,1-.57,3,28.44,28.44,0,0,1-10.19,9.64,27,27,0,0,1-13.52,3.48,27.68,27.68,0,0,1-20.07-8.26A26.77,26.77,0,0,1,448,52.49a27.31,27.31,0,0,1,8.5-20.23,28.48,28.48,0,0,1,34.15-4.53A25.71,25.71,0,0,1,500.75,38a4.34,4.34,0,0,1,.57,3.48A3.66,3.66,0,0,1,499.29,43.83Z"/><path class="cls-1" d="M510.87,80.58A3.84,3.84,0,0,1,508,79.44a4,4,0,0,1-1.21-2.91V28.13A3.54,3.54,0,0,1,508,25.3a3.73,3.73,0,0,1,2.84-1.22,3.9,3.9,0,0,1,2.83,1.22,3.54,3.54,0,0,1,1.21,2.83v20q13.77,0,13.84.08a17.36,17.36,0,0,1,11.09,5.34,15.38,15.38,0,0,1,4.37,10.93,16.32,16.32,0,0,1-15.78,16.11Zm4-24.37V72.48h12.87a8,8,0,0,0,5.91-2.26,8.46,8.46,0,0,0,2.51-5.75,8.55,8.55,0,0,0-2.51-5.83,8,8,0,0,0-5.91-2.43Zm31.81-28.4a4,4,0,0,1,4-4A4.45,4.45,0,0,1,553.6,25a4.47,4.47,0,0,1,1.13,2.84V76.69a3.85,3.85,0,0,1-1.13,2.83,3.9,3.9,0,0,1-2.83,1.22,4.15,4.15,0,0,1-4-4Z"/><path class="cls-1" d="M618.83,23.92a4.41,4.41,0,0,1,2.83,1.14A4.47,4.47,0,0,1,622.8,28a4.41,4.41,0,0,1-1.14,2.83,4.4,4.4,0,0,1-2.83,1.13h-12.3V76.69a3.82,3.82,0,0,1-1.14,2.83,3.86,3.86,0,0,1-2.83,1.22,4.15,4.15,0,0,1-4-4V31.93H586.29a3.83,3.83,0,0,1-2.83-1.13A3.87,3.87,0,0,1,582.25,28a4,4,0,0,1,1.21-2.91,3.84,3.84,0,0,1,2.83-1.14Z"/><path class="cls-1" d="M647.72,58.89,631.29,79.12a4,4,0,0,1-3.15,1.54,3.86,3.86,0,0,1-2.43-.89,3.8,3.8,0,0,1-1.54-2.59,3.74,3.74,0,0,1,.81-3l17.64-21.85L625.14,30.64a3.73,3.73,0,0,1-.81-3,4,4,0,0,1,4.45-3.48,4.17,4.17,0,0,1,2.67,1.54l16.27,20.07L663.67,25.7a4.17,4.17,0,0,1,2.67-1.54,4,4,0,0,1,4.45,3.48,3.73,3.73,0,0,1-.81,3L652.82,52.33Z"/><path class="cls-1" d="M696.44,24.08A15.61,15.61,0,0,1,707.61,29a15.36,15.36,0,0,1,4.61,11.17,15.34,15.34,0,0,1-4.37,10.93,17.36,17.36,0,0,1-11.08,5.34q-.09.07-13.84.08v20a3.71,3.71,0,0,1-1.22,2.83,3.88,3.88,0,0,1-2.83,1.22,4.17,4.17,0,0,1-4-4V28.13a4,4,0,0,1,1.22-2.91,3.82,3.82,0,0,1,2.83-1.14Zm-.64,24.36A8,8,0,0,0,701.7,46a8.51,8.51,0,0,0,2.51-5.83,8.41,8.41,0,0,0-2.51-5.75,8,8,0,0,0-5.9-2.26H682.93V48.44Z"/><path class="cls-1" d="M747,72.48a4.41,4.41,0,0,1,2.83,1.14,4,4,0,0,1,1.21,2.91,3.7,3.7,0,0,1-1.21,2.83A3.9,3.9,0,0,1,747,80.58H718.78a4.17,4.17,0,0,1-4-4V28.13A4,4,0,0,1,716,25.22a3.82,3.82,0,0,1,2.83-1.14H747a4.41,4.41,0,0,1,2.83,1.14,4,4,0,0,1,1.21,2.91A3.7,3.7,0,0,1,749.86,31,3.9,3.9,0,0,1,747,32.18h-24.2V48.44h18.45a4.41,4.41,0,0,1,2.83,1.14,4,4,0,0,1,1.22,2.91,3.71,3.71,0,0,1-1.22,2.83,3.88,3.88,0,0,1-2.83,1.22H722.83V72.48Z"/><path class="cls-1" d="M797.12,80.66H760a3.72,3.72,0,0,1-2.83-1.22,3.87,3.87,0,0,1-1.21-2.83V28.21a3.55,3.55,0,0,1,1.21-2.83A3.72,3.72,0,0,1,760,24.16a3.9,3.9,0,0,1,2.84,1.22A3.55,3.55,0,0,1,764,28.21V72.56h25V28.21a3.55,3.55,0,0,1,1.21-2.83,3.73,3.73,0,0,1,2.84-1.22,3.9,3.9,0,0,1,2.83,1.22,3.55,3.55,0,0,1,1.21,2.83V72.56h4.13a4.49,4.49,0,0,1,2.91,1.14,4.39,4.39,0,0,1,1.14,2.83V89.8a3.82,3.82,0,0,1-1.14,2.83,4.14,4.14,0,0,1-2.91,1.22,4,4,0,0,1-2.91-1.22,3.71,3.71,0,0,1-1.22-2.83Z"/><path class="cls-1" d="M822.37,56.05l-5,5.26V76.85a3.81,3.81,0,0,1-1.14,2.83,4,4,0,0,1-2.91,1.22,3.88,3.88,0,0,1-2.83-1.22,3.81,3.81,0,0,1-1.14-2.83v-49A4.51,4.51,0,0,1,810.48,25a4.43,4.43,0,0,1,2.83-1.13A4.55,4.55,0,0,1,816.22,25a4.51,4.51,0,0,1,1.14,2.92V49.82l22.41-24a3.83,3.83,0,0,1,2.59-1.53,3.7,3.7,0,0,1,3,.81,3.85,3.85,0,0,1,1.54,2.59,3.72,3.72,0,0,1-.81,3L828,50.23l18.37,24.11a3.7,3.7,0,0,1,1,2.92A4.15,4.15,0,0,1,845.76,80a4,4,0,0,1-2.51.89,3.83,3.83,0,0,1-3.07-1.46Z"/><path class="cls-1" d="M877.33,80.58a26.62,26.62,0,0,1-19.83-8.42,27.81,27.81,0,0,1-8.18-20.07,27.43,27.43,0,0,1,8.18-19.75,27.92,27.92,0,0,1,39.65,0,27.43,27.43,0,0,1,8.18,19.75,27.81,27.81,0,0,1-8.18,20.07A26.6,26.6,0,0,1,877.33,80.58Zm0-48.65a20.18,20.18,0,0,0-20.16,20.16,19.91,19.91,0,0,0,5.91,14.65,20,20,0,0,0,28.49,0,20.48,20.48,0,0,0,6-14.65,19.48,19.48,0,0,0-6-14.25A19.41,19.41,0,0,0,877.33,31.93Z"/><path class="cls-1" d="M917.87,32.26V76.61a4,4,0,0,1-1.21,2.91,4.41,4.41,0,0,1-2.83,1.14A3.84,3.84,0,0,1,911,79.52a4,4,0,0,1-1.21-2.91V28.21A3.55,3.55,0,0,1,911,25.38a3.73,3.73,0,0,1,2.84-1.22H942a3.88,3.88,0,0,1,2.83,1.22A3.56,3.56,0,0,1,946,28.21a4,4,0,0,1-1.22,2.92A4.43,4.43,0,0,1,942,32.26Z"/><path class="cls-1" d="M976.06,80.58a26.62,26.62,0,0,1-19.83-8.42,27.8,27.8,0,0,1-8.17-20.07,27.42,27.42,0,0,1,8.17-19.75,27.93,27.93,0,0,1,39.66,0,27.43,27.43,0,0,1,8.18,19.75,27.81,27.81,0,0,1-8.18,20.07A26.62,26.62,0,0,1,976.06,80.58Zm0-48.65a20.18,20.18,0,0,0-20.15,20.16,19.91,19.91,0,0,0,5.91,14.65,20,20,0,0,0,28.49,0,20.48,20.48,0,0,0,6-14.65,19.48,19.48,0,0,0-6-14.25A19.42,19.42,0,0,0,976.06,31.93Z"/><path class="cls-1" d="M1066.55,24.25a4,4,0,0,1,2.91,1.21,3.87,3.87,0,0,1,1.21,2.83v48.4a3.7,3.7,0,0,1-1.21,2.83,4.1,4.1,0,0,1-5.67,0,3.7,3.7,0,0,1-1.21-2.83v-20h-8.26l-13.43,22a4,4,0,0,1-3.48,2,3.55,3.55,0,0,1-2.1-.57,4,4,0,0,1-1.87-2.59,3.66,3.66,0,0,1,.49-3l11.33-18.46a18.42,18.42,0,0,1-8.66-6.15,15.36,15.36,0,0,1-3.32-9.63,15.83,15.83,0,0,1,5-11.41,15.45,15.45,0,0,1,11.09-4.61Zm-4,24.36V32.34h-12.87a8,8,0,0,0-5.91,2.27,8.43,8.43,0,0,0-2.51,5.74,8.55,8.55,0,0,0,2.51,5.83,8,8,0,0,0,5.91,2.43Z"/><path class="cls-1" d="M1084,65.44a8,8,0,0,0,3.31,5.42,10.14,10.14,0,0,0,6.56,2,9.32,9.32,0,0,0,6.48-2.35,7.38,7.38,0,0,0,2.58-5.67,8.13,8.13,0,0,0-2.58-5.9,8.79,8.79,0,0,0-6.48-2.59,5.05,5.05,0,0,1-3.32-1.14,3.7,3.7,0,0,1-1.21-2.83,4,4,0,0,1,1.21-2.91,5.05,5.05,0,0,1,3.32-1.14,8.76,8.76,0,0,0,6.48-2.51,8.22,8.22,0,0,0,2.58-6,7.39,7.39,0,0,0-2.58-5.67,9.32,9.32,0,0,0-6.48-2.35,11.77,11.77,0,0,0-6.39,1.95,7.57,7.57,0,0,0-3.48,4.45,5,5,0,0,1-1.78,2.67,3.47,3.47,0,0,1-3.24.65q-4.12-.74-4.13-4.54a15.23,15.23,0,0,1,6.88-9.47A21.17,21.17,0,0,1,1093.9,24a19.48,19.48,0,0,1,12.79,4.54,14.23,14.23,0,0,1,5.5,11.33,14.87,14.87,0,0,1-6.47,12.54,14.94,14.94,0,0,1,6.47,12.46q0,6.41-5.5,11.17a18.89,18.89,0,0,1-12.79,4.78,20.89,20.89,0,0,1-12.71-4,16.06,16.06,0,0,1-6.31-10.12q0-3.8,4.13-4.61a5.91,5.91,0,0,1,3.4,1.05A3.07,3.07,0,0,1,1084,65.44Z"/><path class="cls-1" d="M1121,80.58a3.82,3.82,0,0,1-2.83-1.14,4,4,0,0,1-1.21-2.91V28.13a3.54,3.54,0,0,1,1.21-2.83,3.71,3.71,0,0,1,2.83-1.22,3.9,3.9,0,0,1,2.84,1.22,3.57,3.57,0,0,1,1.21,2.83v20q13.76,0,13.84.08A17.38,17.38,0,0,1,1150,53.54a15.38,15.38,0,0,1,4.37,10.93,16.33,16.33,0,0,1-15.78,16.11Zm4-24.37V72.48h12.87a8,8,0,0,0,5.91-2.26,8.4,8.4,0,0,0,2.5-5.75,8.5,8.5,0,0,0-2.5-5.83,8,8,0,0,0-5.91-2.43Zm31.81-28.4a4,4,0,0,1,4-4,4.47,4.47,0,0,1,2.84,1.13,4.47,4.47,0,0,1,1.13,2.84V76.69a3.85,3.85,0,0,1-1.13,2.83,3.9,3.9,0,0,1-2.84,1.22,4.15,4.15,0,0,1-4-4Z"/><path class="cls-1" d="M1183.25,56.05l-5,5.26V76.85a3.84,3.84,0,0,1-1.13,2.83,4,4,0,0,1-2.91,1.22,3.9,3.9,0,0,1-2.84-1.22,3.84,3.84,0,0,1-1.13-2.83v-49a4.55,4.55,0,0,1,1.13-2.92,4.45,4.45,0,0,1,2.84-1.13A4.55,4.55,0,0,1,1177.1,25a4.55,4.55,0,0,1,1.13,2.92V49.82l22.42-24a3.83,3.83,0,0,1,2.59-1.53,3.68,3.68,0,0,1,3,.81,3.78,3.78,0,0,1,1.54,2.59,3.72,3.72,0,0,1-.81,3l-18.13,19.51,18.38,24.11a3.78,3.78,0,0,1,1,2.92,4.23,4.23,0,0,1-1.54,2.75,4,4,0,0,1-2.51.89,3.85,3.85,0,0,1-3.08-1.46Z"/><path class="cls-1" d="M1240.39,69.41h-19.75l-3.4,8.25c-.38,1.94-1.67,2.92-3.88,2.92h-.9a4.48,4.48,0,0,1-2.5-2.35c-.54-.59-.68-1.59-.41-3L1226.87,27a3.79,3.79,0,0,1,4-2.92,3.62,3.62,0,0,1,3.8,2.92l16.43,48.23a4.09,4.09,0,0,1,0,3,4.55,4.55,0,0,1-2.43,2.35,4.93,4.93,0,0,1-3-.41,5.29,5.29,0,0,1-2.35-2.51ZM1238,61.23l-7.12-20.72-7.29,20.72Z"/><path class="cls-2" d="M392.22,110.59c6-13.54,26.37-13,32.07.52,17.86,37.89,31.39,77.74,48.44,116,10.65,2.13,29.19,2.76,27.87,18.25,2,11.29-9.1,21-20,19.29-48,.29-96.06.81-144.09.06-14,1.56-23.84-13.19-19.4-25.86,5.12-10.53,17.79-9.09,27.29-11.69C361.29,188.73,374.37,148.6,392.22,110.59ZM384,228.93q24.45-.09,48.89,0-11.83-31.35-23.84-62.65C399.42,186.6,391.76,207.8,384,228.93Z"/><path class="cls-2" d="M512,115.68c.34-9.2,8.1-16.28,16.7-15.92A16.34,16.34,0,0,1,544,114.89q-.12,45.49-.26,91,23.6-27.54,47.36-56.21Q607.8,129.48,624,109.48a20,20,0,0,1,6.64-5.82c5.31-2.87,12.95-3.79,17.75-.48,5.76,4,6.14,12.61,6.26,16.5.55,17.79.66,66.81-.18,132.74-2.84,8.84-11.35,14.4-20,13.44a19,19,0,0,1-15.93-14q-.54-39.57-1.07-79.15L573,220.27c-12.09,13.83-22.68,25.35-31.2,34.56-1.94,2.1-7.34,7.69-14.67,9-1.7.31-7.2,1.29-11.24-1.79a11.47,11.47,0,0,1-1.18-.95c-3.19-3-3.41-7.35-3.51-9.12C510.91,246.68,511.13,191.4,512,115.68Z"/><path class="cls-2" d="M711.66,119.28c5.18-13.41,18.66-25.85,34-20.67,17,7.54,21,27.41,27.58,43,11.81,34.84,28,68.3,37.26,104,3.74,14.06-13,23.79-25,18.66-11.06-7.08-12.44-21.19-17.11-32.36-20.1-.06-40.14,0-60.18-.17-3.74,9.27-6.56,19.12-12,27.58-7.66,9.5-24.82,8.35-30.35-2.82-1.79-16.13,5.87-31.1,11.11-45.84C689,180.33,699,149.29,711.66,119.28ZM717.82,198q20.13,0,40.31-.06c-7-20.15-13.18-40.54-19.4-60.93C731.18,157.12,724.68,177.56,717.82,198Z"/><path class="cls-2" d="M866.27,126.59c2.63-7.8,9.12-27.06,20.83-28.57a13.61,13.61,0,0,1,6.12.72c13.26,4.3,18.64,22.73,19.6,26.19l47.79,120.59a17.83,17.83,0,0,1-32.71,12.61l-37.2-92-32,85.81c-2.55,8.33-9,14.32-16.55,15.21-1.43.17-10.29,1-15.11-5.75-4.37-6.16-1.79-13.48-1.53-14.2C843.53,192.87,858,150.89,866.27,126.59Z"/><path class="cls-2" d="M1017.92,104.14c29.42-10.66,66.16-7.26,89.26,15.37,27.35,27.13,29.31,72,15.32,106-24,55.69-115,57.07-142.13,3.52C959.18,186.83,969.48,122.34,1017.92,104.14ZM1029.78,138c-23.61,17.22-25.74,53-12.79,77.4,12.21,23.67,49.88,25.57,64.62,3.63,13.65-20.39,13.65-48.9,1.15-69.86C1072.39,131.49,1046.48,127.17,1029.78,138Z"/><path class="cls-2" d="M1156.18,104.71l83.9-1c8.41,2.48,14.05,10,13.91,17.72-.17,9.55-9,18.14-20.16,17.76l-55.42.1-.69,112a18,18,0,0,1-35.76.11q-.46-57.62-.92-115.23c-.26-1.41-3.12-18.79,7.85-27.64A20.71,20.71,0,0,1,1156.18,104.71Z"/><circle class="cls-3" cx="187.82" cy="54.88" r="51.96"/><path class="cls-4" d="M213.48,70.7a39.08,39.08,0,0,1-50,.9"/><circle cx="168.64" cy="43.13" r="5.81"/><circle cx="209.46" cy="43.13" r="5.81"/><circle class="cls-3" cx="74.67" cy="79.66" r="51.96"/><path class="cls-4" d="M100.34,95.49a39.11,39.11,0,0,1-50,.89"/><circle cx="55.49" cy="67.91" r="5.81"/><circle cx="96.31" cy="67.91" r="5.81"/><path class="cls-5" d="M259.58,198.27c0-13.56-2.35-22.08-7.68-33.57-10.86-23.39-119-21.15-129.86.56-6.16,12.3-6,18.11-6,33,0,29.93,17.63,62.48,68.07,65.37v.23c1.26,0,2.47,0,3.68-.07s2.43.07,3.68.07v-.23C242,260.75,259.58,228.2,259.58,198.27Z"/><path class="cls-6" d="M116.45,205.92c7.43,24.27,21.53,55.08,67.69,57.72v.23c1.26,0,2.47,0,3.68-.07s2.43.07,3.68.07v-.23c46.14-2.64,67.31-37.58,67.69-53.3C243.73,191.14,151.12,191.14,116.45,205.92Z"/><path class="cls-7" d="M188.44,245.9c-30.7-3.08-53.38-27.58-50.65-54.71-5.74-1-8.15,3.51-11.15,4.49-2.73,27.13,20,51.63,50.65,54.71a60.6,60.6,0,0,0,34.48-6.55A61.93,61.93,0,0,1,188.44,245.9Z"/><path class="cls-8" d="M259.58,197.91c0-41.18-35.16-76.25-41.18-84.18-8,9.93-23.51,12-30.58,12.38-7.07-.41-22.58-2.45-30.57-12.38-6,7.93-41.18,43-41.18,84.18,0,29.93,17.63,62.49,68.07,65.37v.23c1.26,0,2.47,0,3.68-.07s2.43.07,3.68.07v-.23C242,260.4,259.58,227.84,259.58,197.91Z"/><path class="cls-9" d="M146.43,219.81c0-41.18-35.16-76.25-41.18-84.18-8,9.93-23.51,12-30.58,12.37-7.07-.4-22.58-2.44-30.57-12.37-6,7.93-41.18,43-41.18,84.18,0,29.92,17.63,62.48,68.08,65.36v.23c1.25,0,2.46,0,3.67-.07s2.43.07,3.68.07v-.23C128.8,282.29,146.43,249.73,146.43,219.81Z"/><polygon class="cls-10" points="76.94 205.96 81.55 212.1 88.81 209.62 84.39 215.9 89 222.04 81.66 219.78 77.24 226.06 77.13 218.38 69.79 216.12 77.06 213.64 76.94 205.96 76.94 205.96"/><path class="cls-11" d="M70.39,244.35a27.82,27.82,0,0,1,0-55.64,27.54,27.54,0,0,1,8.89,1.48,32.56,32.56,0,1,0,6.28,49.64A27.75,27.75,0,0,1,70.39,244.35Z"/></g></g></svg>