<svg xmlns="http://www.w3.org/2000/svg" viewBox="0 0 512 512"><defs><style>.cls-1{fill:#b31217;}</style></defs><title>promo</title><g id="Слой_2" data-name="Слой 2"><g id="Layer_1" data-name="Layer 1"><g id="_Группа_" data-name="&lt;Группа&gt;"><g id="_Группа_2" data-name="&lt;Группа&gt;"><path id="_Контур_" data-name="&lt;Контур&gt;" class="cls-1" d="M50,362.39a10,10,0,1,0-7.07-2.93A10.08,10.08,0,0,0,50,362.39Z"/><path id="_Составной_контур_" data-name="&lt;Составной контур&gt;" class="cls-1" d="M502,324H478.5V170h17.43a10,10,0,0,0,8.66-15L449.16,59a10,10,0,0,0-17.32,0l-55.43,96a10,10,0,0,0,8.66,15H402.5v84a10,10,0,0,0,20,0V160a10,10,0,0,0-10-10H402.39L440.5,84l38.11,66H468.5a10,10,0,0,0-10,10V324H379a10,10,0,0,0-10,10v38H256a10,10,0,0,0-10,10v22H190.66A32,32,0,0,0,193,392V277.84a50.06,50.06,0,0,0-50-50H131.18V215.66a33.61,33.61,0,0,0,13.76,2.94h51.88a29.62,29.62,0,1,0,0-59.24H171.1V148.11a66.09,66.09,0,0,0-48.25-63.56A46.3,46.3,0,0,0,133,55.62V46.49a46.5,46.5,0,0,0-93,0v9.13a46.23,46.23,0,0,0,9.81,28.51A66.1,66.1,0,0,0,0,148.11v51.82a50,50,0,0,0,40,48.92v63.54a10,10,0,0,0,20,0V247.84h83a30,30,0,0,1,30,30V392a12,12,0,0,1-24,0V289.92a10,10,0,0,0-10-10H93.94a10,10,0,0,0-10,10V432A12,12,0,0,1,60,432V392.39a10,10,0,0,0-20,0V432a31.79,31.79,0,0,0,2.33,12H10A10,10,0,0,0,0,454v48a10,10,0,0,0,10,10H502a10,10,0,0,0,10-10V334A10,10,0,0,0,502,324ZM60,46.49a26.5,26.5,0,0,1,53,0v9.13a26.5,26.5,0,0,1-53,0ZM50,148.26a10,10,0,0,0-10,10v69.89a30,30,0,0,1-20-28.22V148.11a46.06,46.06,0,0,1,46-46h39.1a46.05,46.05,0,0,1,46,46v21.25a10,10,0,0,0,10,10h35.72a9.62,9.62,0,1,1,0,19.24H144.93a13.77,13.77,0,0,1-13.75-13.76V158.26a10,10,0,0,0-20,0v69.58H60V158.26A10,10,0,0,0,50,148.26ZM103.94,432V299.92H129V392a31.86,31.86,0,0,0,2.4,12.14A10,10,0,0,0,123,414v30H101.6A31.8,31.8,0,0,0,103.94,432ZM20,464H123v28H20Zm123-10V424H246v68H143Zm123-40V392H369V492H266Zm226,78H389V344H492Z"/><path id="_Контур_2" data-name="&lt;Контур&gt;" class="cls-1" d="M419.57,301.07A10,10,0,1,0,412.5,304,10.08,10.08,0,0,0,419.57,301.07Z"/></g></g></g></g></svg>