<svg xmlns="http://www.w3.org/2000/svg" xmlns:xlink="http://www.w3.org/1999/xlink" viewBox="0 0 171.65 178.78"><defs><style>.cls-1{fill:none;}.cls-2{fill:#6b5e9a;}.cls-2,.cls-20{opacity:0.7;}.cls-3{fill:#0b0244;opacity:0.4;}.cls-4{fill:url(#Безымянный_градиент_3);}.cls-5{fill:url(#Безымянный_градиент_24);}.cls-20,.cls-6{fill:#24126a;}.cls-7{opacity:0.51;}.cls-8{fill:#453c9e;}.cls-9{fill:url(#Безымянный_градиент_24-2);}.cls-10{fill:url(#Безымянный_градиент_3-2);}.cls-11{fill:#fff;}.cls-12{fill:#2842a2;}.cls-13{fill:#adb1f2;}.cls-14{fill:#9198db;}.cls-15{fill:url(#Безымянный_градиент_3-3);}.cls-16{opacity:0.11;}.cls-17{clip-path:url(#clip-path);}.cls-18{fill:url(#Безымянный_градиент_3-4);}.cls-19{fill:url(#Безымянный_градиент_3-5);}.cls-21{fill:url(#Безымянный_градиент_3-6);}.cls-22{fill:url(#Безымянный_градиент_3-7);}.cls-23{fill:url(#Безымянный_градиент_3-8);}.cls-24{fill:url(#Безымянный_градиент_29);}.cls-25{fill:url(#Безымянный_градиент_252);}.cls-26{fill:url(#Безымянный_градиент_37);}</style><linearGradient id="Безымянный_градиент_3" x1="-2257.15" y1="66.5" x2="-2169.59" y2="66.5" gradientTransform="matrix(-1, 0, 0, 1, -2121.06, 0)" gradientUnits="userSpaceOnUse"><stop offset="0" stop-color="#c0bff6"/><stop offset="0.29" stop-color="#c5c4f7"/><stop offset="0.64" stop-color="#d3d2f9"/><stop offset="1" stop-color="#e9e9fd"/></linearGradient><linearGradient id="Безымянный_градиент_24" x1="-2257.15" y1="88.96" x2="-2242.11" y2="88.96" gradientTransform="matrix(-1, 0, 0, 1, -2121.06, 0)" gradientUnits="userSpaceOnUse"><stop offset="0" stop-color="#5761d7"/><stop offset="0.18" stop-color="#5c66d9"/><stop offset="0.39" stop-color="#6a73df"/><stop offset="0.61" stop-color="#8289e8"/><stop offset="0.85" stop-color="#a3a7f5"/><stop offset="1" stop-color="#bcbeff"/></linearGradient><linearGradient id="Безымянный_градиент_24-2" x1="-2245.42" y1="114.2" x2="-2121.77" y2="114.2" xlink:href="#Безымянный_градиент_24"/><linearGradient id="Безымянный_градиент_3-2" x1="-2203.87" y1="110.07" x2="-2080.15" y2="110.07" xlink:href="#Безымянный_градиент_3"/><linearGradient id="Безымянный_градиент_3-3" x1="-2182.92" y1="117.1" x2="-2151.25" y2="117.1" xlink:href="#Безымянный_градиент_3"/><clipPath id="clip-path"><polygon id="SVGID" class="cls-1" points="59.1 19.08 132.15 61.26 123.09 114.67 50.09 72.52 59.1 19.08"/></clipPath><linearGradient id="Безымянный_градиент_3-4" x1="-2251.14" y1="82.65" x2="-2127.42" y2="82.65" xlink:href="#Безымянный_градиент_3"/><linearGradient id="Безымянный_градиент_3-5" x1="-2259.28" y1="73.57" x2="-2227.61" y2="73.57" xlink:href="#Безымянный_градиент_3"/><linearGradient id="Безымянный_градиент_3-6" x1="-510.98" y1="360.14" x2="-460.24" y2="337.21" gradientTransform="matrix(0.79, 0.46, -0.16, 0.91, 533.07, -27)" xlink:href="#Безымянный_градиент_3"/><linearGradient id="Безымянный_градиент_3-7" x1="1690.59" y1="4367.25" x2="1713.84" y2="4316.66" gradientTransform="matrix(-0.79, -0.46, 0.18, -1.05, 643.21, 5433.46)" xlink:href="#Безымянный_градиент_3"/><linearGradient id="Безымянный_градиент_3-8" x1="-491.05" y1="604.62" x2="-497.46" y2="659.92" gradientTransform="matrix(0.79, 0.46, -0.18, 1.05, 596.39, -397.92)" xlink:href="#Безымянный_градиент_3"/><linearGradient id="Безымянный_градиент_29" x1="121.35" y1="17.64" x2="86.37" y2="28.28" gradientTransform="matrix(0.87, 0.5, 0, 1.15, 15.68, -59.82)" gradientUnits="userSpaceOnUse"><stop offset="0" stop-color="#bcbeff"/><stop offset="0.15" stop-color="#b5b8fc"/><stop offset="0.36" stop-color="#a3a7f5"/><stop offset="0.6" stop-color="#848be9"/><stop offset="0.87" stop-color="#5a64d8"/><stop offset="0.89" stop-color="#5761d7"/></linearGradient><linearGradient id="Безымянный_градиент_252" x1="134.18" y1="20.3" x2="107.25" y2="8.24" gradientTransform="matrix(0.87, -0.5, 0, 1.15, 17.41, 63.06)" gradientUnits="userSpaceOnUse"><stop offset="0" stop-color="#e9e9fd"/><stop offset="0.36" stop-color="#d3d2f9"/><stop offset="0.71" stop-color="#c5c4f7"/><stop offset="1" stop-color="#c0bff6"/></linearGradient><linearGradient id="Безымянный_градиент_37" x1="102.17" y1="22.24" x2="134.24" y2="6.13" gradientTransform="matrix(0.87, 0.5, -1, 0.58, 33.06, -58.74)" gradientUnits="userSpaceOnUse"><stop offset="0" stop-color="#e9e9fd"/><stop offset="0.54" stop-color="#d1d0f9"/><stop offset="1" stop-color="#c0bff6"/></linearGradient></defs><title>notebook</title><g id="Слой_2" data-name="Слой 2"><g id="Слой_1-2" data-name="Слой 1"><path class="cls-2" d="M58.78,49.14a4.51,4.51,0,0,1-2.21-.51L38.84,38.39A1.64,1.64,0,0,1,37.91,37a2.17,2.17,0,0,1,1.28-1.75l17-9.83a5.64,5.64,0,0,1,5.05-.21L79,35.45a1.65,1.65,0,0,1,.94,1.39,2.21,2.21,0,0,1-1.29,1.76l-17,9.83A5.81,5.81,0,0,1,58.78,49.14Zm.29-24a5.43,5.43,0,0,0-2.65.66l-17,9.83A1.83,1.83,0,0,0,38.31,37a1.27,1.27,0,0,0,.73,1L56.77,48.28a5.15,5.15,0,0,0,4.65-.2l17-9.83a1.83,1.83,0,0,0,1.09-1.41,1.26,1.26,0,0,0-.74-1L61.07,25.56A4,4,0,0,0,59.07,25.1Z"/><path class="cls-2" d="M16.59,50.29A2.13,2.13,0,0,1,15.53,50L7.44,45.38A.85.85,0,0,1,7,44.65a1.1,1.1,0,0,1,.64-.9l7.77-4.48a2.61,2.61,0,0,1,2.41-.09l8.09,4.66a.85.85,0,0,1,.48.73,1.1,1.1,0,0,1-.64.9L17.94,50A2.71,2.71,0,0,1,16.59,50.29Zm-.86-.59a2.27,2.27,0,0,0,2-.09l7.77-4.49c.27-.16.44-.36.44-.55a.48.48,0,0,0-.28-.38l-8.09-4.67a2.3,2.3,0,0,0-2,.09L7.8,44.1c-.28.16-.44.36-.44.55a.47.47,0,0,0,.28.38Z"/><path class="cls-2" d="M110.08,167.39a4.51,4.51,0,0,1-2.21-.51L90.14,156.65a1.62,1.62,0,0,1-.93-1.39,2.19,2.19,0,0,1,1.28-1.76l17-9.83a5.61,5.61,0,0,1,5-.2L130.3,153.7a1.66,1.66,0,0,1,.94,1.39,2.19,2.19,0,0,1-1.29,1.76l-17,9.83A5.81,5.81,0,0,1,110.08,167.39Zm.29-24a5.43,5.43,0,0,0-2.65.66l-17,9.83a1.85,1.85,0,0,0-1.09,1.41,1.26,1.26,0,0,0,.74,1l17.73,10.24a5.21,5.21,0,0,0,4.65-.2l17-9.84a1.81,1.81,0,0,0,1.09-1.41,1.27,1.27,0,0,0-.74-1l-17.73-10.23A4,4,0,0,0,110.37,143.36Z"/><path class="cls-3" d="M.68,135.08l75,43.31a3.09,3.09,0,0,0,2.77.11l44.77-25.84c.71-.41.62-1.13-.2-1.6L48,107.74a3.09,3.09,0,0,0-2.77-.11L.48,133.47C-.23,133.89-.14,134.6.68,135.08Z"/><path class="cls-4" d="M48.55,72,58,15.69l-.76-.32,1.15-.66h0a.81.81,0,0,1,.88.06l75.79,43.75a2.15,2.15,0,0,1,1,1.93l-9.56,56.71a.72.72,0,0,1-.4.58h0l-1.12.64-.19-1,.06,0L49.54,73.87A2.11,2.11,0,0,1,48.55,72Z"/><path class="cls-5" d="M134.66,60.07l1.25-.55a1.71,1.71,0,0,1,.16.94l-9.56,56.71a.72.72,0,0,1-.4.58h0l-1.12.64-.19-1,.06,0-3.81-2.2Z"/><path class="cls-6" d="M48.35,74.56l75.78,43.75c.59.34,1.09.15,1.19-.46l9.56-56.71a2.14,2.14,0,0,0-1-1.92L58.11,15.46c-.59-.34-1.09-.14-1.19.46L47.36,72.63A2.13,2.13,0,0,0,48.35,74.56Z"/><g class="cls-7"><polygon class="cls-8" points="59.1 19.08 132.15 61.26 123.09 114.67 50.09 72.52 59.1 19.08"/></g><path class="cls-2" d="M77.93,156.24a3.43,3.43,0,0,1-1.67-.43l-75-43.31a1.32,1.32,0,0,1-.78-1.08,1,1,0,0,1,.58-.86L45.81,84.71a3.28,3.28,0,0,1,3,.11l75,43.32a1.32,1.32,0,0,1,.78,1.08,1,1,0,0,1-.58.86L79.24,155.93A2.76,2.76,0,0,1,77.93,156.24ZM47.12,84.8a2.28,2.28,0,0,0-1.11.26L1.25,110.9a.63.63,0,0,0-.38.52c0,.26.21.52.58.74l75,43.31a2.94,2.94,0,0,0,2.58.11l44.76-25.84a.63.63,0,0,0,.38-.52c0-.26-.21-.52-.58-.74l-75-43.31A3.08,3.08,0,0,0,47.12,84.8Z"/><path class="cls-9" d="M.71,101.4l4.13,2.16L46.31,79.62a3,3,0,0,1,2.71.11L120.55,121c.69-.38,3.81-1.88,3.81-1.88l-1.52,3.94h0a1,1,0,0,1-.43.47L78.73,148.77a3,3,0,0,1-2.7-.11L2.83,106.4a1.29,1.29,0,0,1-.61-.65h0Z"/><path class="cls-10" d="M1.35,102.08l75,43.32a3.11,3.11,0,0,0,2.78.11l44.76-25.84c.71-.42.62-1.13-.2-1.61l-75-43.31a3.11,3.11,0,0,0-2.78-.11L1.15,100.48C.44,100.89.52,101.61,1.35,102.08Z"/><path class="cls-11" d="M1.35,101.75l75,43.31a3.08,3.08,0,0,0,2.78.11l44.76-25.84a.91.91,0,0,0,.45-.52.77.77,0,0,1-.45.86L79.14,145.51a3.11,3.11,0,0,1-2.78-.11l-75-43.32c-.54-.3-.76-.71-.65-1.07A1.24,1.24,0,0,0,1.35,101.75Z"/><path class="cls-12" d="M99,136v-.83c0-.07,0-.11-.11-.08L96,136.8a.23.23,0,0,0-.1.2v.82c0,.08,0,.12.1.08l2.9-1.67A.26.26,0,0,0,99,136Z"/><path class="cls-12" d="M94.65,138.53v-.82c0-.08-.05-.11-.1-.08l-2.91,1.67a.3.3,0,0,0-.1.21v.82c0,.08,0,.11.1.08l2.91-1.68A.26.26,0,0,0,94.65,138.53Z"/><path class="cls-13" d="M112.23,117.24l-62.34-36a1.34,1.34,0,0,0-1.34,0L26.35,94.1a.48.48,0,0,0,0,.83l62.31,36a1.34,1.34,0,0,0,1.34,0l22.23-12.83A.48.48,0,0,0,112.23,117.24Z"/><path class="cls-14" d="M112.23,118.07l-.22.13L49.89,82.34a1.34,1.34,0,0,0-1.34,0l-22,12.71-.22-.12a.48.48,0,0,1,0-.83l22.2-12.85a1.34,1.34,0,0,1,1.34,0l62.34,36A.48.48,0,0,1,112.23,118.07Z"/><polygon class="cls-6" points="46.87 84.51 101.03 115.77 103.43 114.38 49.28 83.12 46.87 84.51"/><polygon class="cls-6" points="40.97 87.91 91.76 117.24 94.17 115.85 43.38 86.52 40.97 87.91"/><polygon class="cls-6" points="37.13 90.13 96.93 124.66 99.34 123.27 39.53 88.74 37.13 90.13"/><polygon class="cls-6" points="33.28 92.35 93.08 126.88 95.49 125.49 35.69 90.96 33.28 92.35"/><polygon class="cls-6" points="29.44 94.57 89.24 129.1 91.65 127.71 31.84 93.18 29.44 94.57"/><polygon class="cls-6" points="104.3 117.66 106.7 119.05 109.11 117.66 106.7 116.27 104.3 117.66"/><polygon class="cls-6" points="95.8 119.57 100.8 122.46 103.21 121.07 98.21 118.18 95.8 119.57"/><path class="cls-15" d="M47.49,126l-16.81-9.7a.73.73,0,0,1,0-1.37l11.5-6.64a2.63,2.63,0,0,1,2.38,0l16.81,9.7a.73.73,0,0,1,0,1.38L49.87,126A2.63,2.63,0,0,1,47.49,126Z"/><path class="cls-14" d="M61.37,118.51,44.56,108.8a2.63,2.63,0,0,0-2.38,0l-11.5,6.64a1.12,1.12,0,0,0-.41.4c-.17-.33,0-.7.41-1l11.5-6.64a2.63,2.63,0,0,1,2.38,0l16.81,9.7c.45.27.58.64.41,1A1,1,0,0,0,61.37,118.51Z"/><g class="cls-16"><g class="cls-17"><path class="cls-18" d="M48.61,74.66l75,43.31a3.06,3.06,0,0,0,2.77.12l44.77-25.85c.71-.41.62-1.12-.2-1.6L96,47.33a3.09,3.09,0,0,0-2.77-.11L48.41,73.06C47.7,73.47,47.79,74.19,48.61,74.66Z"/><path class="cls-19" d="M123.85,82.43,107,72.72a.73.73,0,0,1,0-1.37l11.5-6.64a2.63,2.63,0,0,1,2.38,0l16.81,9.71a.73.73,0,0,1,0,1.37l-11.5,6.64A2.63,2.63,0,0,1,123.85,82.43Z"/><path class="cls-14" d="M137.73,75l-16.81-9.7a2.63,2.63,0,0,0-2.38,0L107,71.91a1.07,1.07,0,0,0-.41.41c-.17-.33,0-.71.41-1l11.5-6.64a2.63,2.63,0,0,1,2.38,0l16.81,9.71c.45.26.58.63.41,1A1.07,1.07,0,0,0,137.73,75Z"/><path class="cls-13" d="M145.12,97.59l-62.34-36a1.36,1.36,0,0,0-1.35,0L59.23,74.45a.49.49,0,0,0,0,.83l62.32,36a1.34,1.34,0,0,0,1.34,0l22.23-12.83A.49.49,0,0,0,145.12,97.59Z"/><path class="cls-14" d="M145.12,98.42l-.23.13L82.78,62.69a1.36,1.36,0,0,0-1.35,0l-22,12.71-.23-.12a.49.49,0,0,1,0-.83L81.43,61.6a1.36,1.36,0,0,1,1.35,0l62.34,36A.49.49,0,0,1,145.12,98.42Z"/><polygon class="cls-6" points="65.04 73.57 119.35 104.93 117.2 106.17 62.89 74.81 65.04 73.57"/><polygon class="cls-6" points="70.77 70.27 122.39 100.07 120.23 101.31 68.61 71.51 70.77 70.27"/><polygon class="cls-6" points="126.24 102.3 131.06 105.08 128.91 106.32 124.09 103.54 126.24 102.3"/><polygon class="cls-6" points="121.98 106.44 125.34 108.38 123.19 109.62 119.83 107.69 121.98 106.44"/><polygon class="cls-6" points="74.35 68.2 134.65 103.01 132.5 104.25 72.2 69.44 74.35 68.2"/><polygon class="cls-6" points="77.94 66.13 138.23 100.94 136.08 102.18 75.79 67.37 77.94 66.13"/><polygon class="cls-6" points="81.52 64.06 141.82 98.87 139.67 100.11 79.37 65.3 81.52 64.06"/></g></g><polygon class="cls-20" points="73.99 36.62 68.48 68.92 112.38 94.27 117.89 61.96 73.99 36.62"/><polygon class="cls-21" points="106.88 97.78 62.98 72.43 68.48 40.13 112.38 65.48 106.88 97.78"/><polygon class="cls-22" points="106.88 97.78 88.27 65.48 62.98 72.43 106.88 97.78"/><polygon class="cls-23" points="68.48 40.13 87.09 72.43 112.38 65.48 68.48 40.13"/><polygon class="cls-3" points="115.54 38.37 102.25 30.69 115.54 23.02 128.83 30.7 115.54 38.37"/><polygon class="cls-24" points="115.54 30.69 102.25 23.02 102.25 7.67 115.54 15.35 115.54 30.69"/><polygon class="cls-25" points="128.83 23.02 115.54 30.69 115.54 15.35 128.83 7.67 128.83 23.02"/><polygon class="cls-26" points="115.54 15.35 102.25 7.67 115.54 0 128.83 7.67 115.54 15.35"/><polygon class="cls-11" points="115.54 14.79 102.73 7.39 102.25 7.67 115.54 15.35 128.83 7.67 128.34 7.39 115.54 14.79"/></g></g></svg>