<svg xmlns="http://www.w3.org/2000/svg" viewBox="0 0 444.82 280.37"><defs><style>.cls-1{fill:#be2326;}</style></defs><title>shev_top</title><g id="Слой_2" data-name="Слой 2"><g id="Capa_1" data-name="Capa 1"><path class="cls-1" d="M196.71,10.57,10.85,196.71a35.86,35.86,0,0,0,0,51.4L32.26,269.8A35,35,0,0,0,58,280.37a36.54,36.54,0,0,0,26-10.57L222.41,131.05,361.17,269.81a35,35,0,0,0,25.69,10.56,36.56,36.56,0,0,0,26-10.56l21.41-21.7a36.52,36.52,0,0,0,0-51.39L248.39,10.57A36.57,36.57,0,0,0,222.41,0,35,35,0,0,0,196.71,10.57Z"/></g></g></svg>