<svg xmlns="http://www.w3.org/2000/svg" width="16" height="22" viewBox="0 0 16 22">
  <defs>
    <style>
      .cls-1 {
        fill: #fff;
        fill-rule: evenodd;
      }
    </style>
  </defs>
  <path class="cls-1" d="M2650.27,555a4.656,4.656,0,0,0-4.74,4.544,4.476,4.476,0,0,0,1.99,3.7V561.2a3.031,3.031,0,0,1-.5-1.651,3.248,3.248,0,0,1,6.49,0,3.031,3.031,0,0,1-.5,1.651v2.048a4.485,4.485,0,0,0,2-3.7A4.656,4.656,0,0,0,2650.27,555Zm0,3.348a2.217,2.217,0,0,0-2.25,2.152v5.814a2.469,2.469,0,0,0-1.25-.964,2.173,2.173,0,0,0-1.62.269,2.356,2.356,0,0,0-1.05,1.218,2.767,2.767,0,0,0,.23,1.809,29.982,29.982,0,0,0,4.88,8.108,0.773,0.773,0,0,0,.56.246h6.74a0.778,0.778,0,0,0,.44-0.142,6.2,6.2,0,0,0,1.86-2.511,13.483,13.483,0,0,0,1.05-3.474,7.78,7.78,0,0,0-.08-3.348,2.652,2.652,0,0,0-2.19-2,4.119,4.119,0,0,0-.57.044,1.82,1.82,0,0,0-.56-0.636,2.074,2.074,0,0,0-1.22-.366,1.654,1.654,0,0,0-.73.21,2.013,2.013,0,0,0-.27-0.314,2.12,2.12,0,0,0-1.23-.373,2.372,2.372,0,0,0-.5.06V560.5A2.208,2.208,0,0,0,2650.27,558.348Zm0,1.435a0.722,0.722,0,0,1,.75.717v5.023a0.733,0.733,0,0,0,.58.7,0.778,0.778,0,0,0,.84-0.4,0.712,0.712,0,0,1,.91-0.209,0.344,0.344,0,0,1,.16.382,0.749,0.749,0,0,0,.58.7,0.786,0.786,0,0,0,.84-0.382c0.2-.386.32-0.339,0.66-0.216a0.326,0.326,0,0,1,.17.374,0.716,0.716,0,0,0,.45.649,0.785,0.785,0,0,0,.8-0.126,2.017,2.017,0,0,1,.45-0.046,1.062,1.062,0,0,1,.89.965,6.657,6.657,0,0,1,.03,2.735,12.285,12.285,0,0,1-.95,3.108,5.624,5.624,0,0,1-1.24,1.8h-6.05c-1.39-1.811-4.61-6.683-4.6-8.34a0.934,0.934,0,0,1,.84-0.493,1.559,1.559,0,0,1,.73.8l0.99,1.9a0.784,0.784,0,0,0,.84.381,0.747,0.747,0,0,0,.58-0.7V560.5a0.716,0.716,0,0,1,.75-0.717h0Z" transform="translate(-2644 -555)"/>
</svg>
